<?xml version="1.0" encoding="utf-8"?>
<!-- Generator: Adobe Illustrator 22.1.0, SVG Export Plug-In . SVG Version: 6.00 Build 0)  -->
<svg version="1.1" id="Layer_1" xmlns="http://www.w3.org/2000/svg" xmlns:xlink="http://www.w3.org/1999/xlink" x="0px" y="0px"
	 viewBox="0 0 254 254" style="enable-background:new 0 0 254 254;" xml:space="preserve">
<style type="text/css">
	.st0{fill:#035493;}
</style>
<path class="st0" d="M204.5,129.5c0-3-4.6-7.8-9.6-12.9c-4.1-4.2-8.7-9-8.7-11.2c0-2.7,0.6-4.9,1.1-6.9c0.4-1.6,0.8-3.1,0.8-4.7
	c0-3.2-5-19.8-14-32.4c-8.7-12.1-19.8-23.8-50.3-23.6l0,0c-0.2,0-0.4,0-0.6,0c-2.2,0-4.4,0.2-6.5,0.6c-2.1-0.4-4.3-0.6-6.5-0.6
	s-4.4,0.2-6.5,0.6c-2.1-0.4-4.3-0.6-6.5-0.6s-4.4,0.2-6.5,0.6c-2.1-0.4-4.3-0.6-6.5-0.6c-19.3,0-35,15.7-35,35
	c0,19.7,17.2,37.3,34,54.2c-16.8,17-34,34.5-34,54.3c0,19.3,15.7,35,35,35c2.2,0,4.4-0.2,6.5-0.6c2.1,0.4,4.3,0.6,6.5,0.6
	s4.4-0.2,6.5-0.6c2.1,0.4,4.3,0.6,6.5,0.6s4.4-0.2,6.5-0.6c2.1,0.4,4.3,0.6,6.5,0.6c12.3,0,23.2-6.4,29.4-16.1l0,0
	c6.1-5.7,10.9-4.7,17-3.4c2.8,0.6,5.7,1.2,9,1.2c10.6,0,12.2-14.7,12.3-15.7c0.5-2,3.9-17.9,1.8-21.2c-1.2-1.8-3.9-2.1-6.6-2.4
	c-2.7-0.3-4.4-0.5-4.4-1.6c0-1.4,4.2-2.2,7.3-2.7c2.8-0.5,5.3-1,6.4-1.9c2.3-2.1-0.1-8.7-1-11C196.5,140.3,204.5,134.6,204.5,129.5z
	 M123.1,39.4c18.5,0,33.6,15.1,33.6,33.6c0,19.2-17,36.5-33.6,53.2c-1.8-1.9-3.7-3.7-5.5-5.6c14.5-14.9,27.6-30.5,27.6-47.7
	c0-15.8-10.5-29.1-24.8-33.5C121.3,39.4,122.2,39.4,123.1,39.4z M104.7,120.6c1.9-1.9,3.7-3.9,5.5-5.8c1.8,1.9,3.6,3.9,5.5,5.8
	c-1.8,1.9-3.7,3.7-5.5,5.6C108.4,124.4,106.5,122.5,104.7,120.6z M109.2,127.2c-1.8,1.8-3.7,3.7-5.5,5.6c-1.8-1.9-3.7-3.7-5.5-5.6
	c1.8-1.8,3.7-3.7,5.5-5.6C105.5,123.5,107.4,125.4,109.2,127.2z M103.7,119.6c-1.9-1.9-3.7-3.9-5.5-5.8c1.9-2.1,3.8-4.2,5.5-6.3
	c1.8,2.1,3.6,4.2,5.5,6.3C107.4,115.8,105.6,117.7,103.7,119.6z M111.1,113.8c11.7-12.8,21.1-26.2,21.1-40.8
	c0-14-8.3-26.1-20.2-31.7c1.5-0.5,3-0.9,4.6-1.3c15.4,3,27.1,16.7,27.1,33c0,16.7-12.9,31.9-27.1,46.7
	C114.8,117.7,112.9,115.8,111.1,113.8z M130.9,73c0,14.1-9.2,27.2-20.7,39.8c-1.9-2.1-3.8-4.3-5.6-6.4c8.5-10.6,14.7-21.6,14.7-33.4
	c0-11.6-5.7-21.9-14.4-28.2c1.7-1.1,3.4-2,5.2-2.8C122.3,47,130.9,59,130.9,73z M103.7,105.2C95.5,95,89.5,84.3,89.5,73
	c0-11.3,5.6-21.3,14.2-27.4c8.6,6.1,14.2,16.1,14.2,27.4C117.9,84.3,112,95,103.7,105.2z M103.7,43.9c-1.5-1-3-1.8-4.6-2.6
	c1.5-0.5,3-0.9,4.6-1.3c1.6,0.3,3.1,0.7,4.6,1.3C106.7,42,105.2,42.9,103.7,43.9z M102.5,44.7C93.8,51.1,88.1,61.4,88.1,73
	c0,11.8,6.2,22.8,14.7,33.4c-1.8,2.2-3.6,4.3-5.6,6.4C85.8,100.2,76.6,87.1,76.6,73c0-13.9,8.5-25.9,20.7-31
	C99.1,42.7,100.8,43.7,102.5,44.7z M75.2,73c0,14.6,9.4,28,21.1,40.8c-1.8,2-3.6,3.9-5.5,5.8c-14.3-14.7-27.1-30-27.1-46.7
	c0-16.3,11.7-29.9,27.1-33c1.6,0.3,3.1,0.7,4.6,1.3C83.5,46.8,75.2,59,75.2,73z M97.3,114.8c1.8,1.9,3.6,3.9,5.5,5.8
	c-1.8,1.9-3.7,3.7-5.5,5.6c-1.8-1.9-3.7-3.7-5.5-5.6C93.6,118.7,95.5,116.8,97.3,114.8z M96.3,127.2c-1.8,1.8-3.7,3.7-5.5,5.6
	c-1.8-1.9-3.7-3.7-5.5-5.6c1.8-1.8,3.7-3.7,5.5-5.6C92.6,123.5,94.4,125.4,96.3,127.2z M97.3,128.2c1.8,1.9,3.7,3.7,5.5,5.6
	c-1.9,1.9-3.7,3.9-5.5,5.8c-1.8-1.9-3.6-3.9-5.5-5.8C93.6,131.9,95.4,130.1,97.3,128.2z M103.7,134.8c1.9,1.9,3.7,3.9,5.5,5.8
	c-1.9,2.1-3.8,4.2-5.5,6.3c-1.8-2.1-3.6-4.2-5.5-6.3C100,138.7,101.8,136.7,103.7,134.8z M96.3,140.6
	c-11.7,12.9-21.1,26.3-21.1,40.9c0,14,8.3,26.1,20.2,31.7c-1.5,0.5-3,0.9-4.6,1.3c-15.4-3-27.1-16.7-27.1-33
	c0-16.7,12.9-32,27.1-46.8C92.7,136.7,94.5,138.7,96.3,140.6z M76.6,181.6c0-14.1,9.2-27.3,20.7-39.9c1.9,2.1,3.8,4.3,5.6,6.4
	c-8.5,10.6-14.7,21.6-14.7,33.5c0,11.6,5.7,21.9,14.4,28.2c-1.7,1.1-3.4,2-5.2,2.8C85.1,207.5,76.6,195.5,76.6,181.6z M103.7,149.2
	c8.3,10.3,14.2,21,14.2,32.4c0,11.3-5.6,21.3-14.2,27.4c-8.6-6.1-14.2-16.1-14.2-27.4C89.5,170.2,95.4,159.5,103.7,149.2z
	 M103.7,210.7c1.5,1,3,1.8,4.6,2.6c-1.5,0.5-3,0.9-4.6,1.3c-1.6-0.3-3.1-0.7-4.6-1.3C100.7,212.5,102.3,211.6,103.7,210.7z
	 M105,209.8c8.7-6.4,14.4-16.7,14.4-28.2c0-11.8-6.2-22.9-14.7-33.5c1.8-2.2,3.6-4.3,5.6-6.4c11.5,12.6,20.7,25.8,20.7,39.9
	c0,13.9-8.5,25.9-20.7,31C108.4,211.8,106.6,210.9,105,209.8z M132.3,181.6c0-14.7-9.4-28.1-21.1-40.9c1.8-2,3.6-3.9,5.5-5.8
	c14.3,14.7,27.1,30,27.1,46.8c0,16.3-11.7,29.9-27.1,33c-1.6-0.3-3.1-0.7-4.6-1.3C124,207.7,132.3,195.6,132.3,181.6z M110.2,139.6
	c-1.8-1.9-3.6-3.9-5.5-5.8c1.8-1.9,3.7-3.7,5.5-5.6c1.8,1.9,3.7,3.7,5.5,5.6C113.8,135.7,112,137.6,110.2,139.6z M111.2,127.2
	c1.8-1.8,3.7-3.7,5.5-5.6c1.8,1.9,3.7,3.7,5.5,5.6c-1.8,1.8-3.7,3.7-5.5,5.6C114.8,130.9,113,129.1,111.2,127.2z M110.2,39.4
	c0.9,0,1.8,0,2.7,0.1c-0.9,0.3-1.8,0.6-2.7,1c-0.9-0.4-1.8-0.7-2.7-1C108.4,39.4,109.3,39.4,110.2,39.4z M97.3,39.4
	c0.9,0,1.8,0,2.7,0.1c-0.9,0.3-1.8,0.6-2.7,1c-0.9-0.4-1.8-0.7-2.7-1C95.4,39.4,96.3,39.4,97.3,39.4z M50.7,73
	c0-18.5,15.1-33.6,33.6-33.6c0.9,0,1.8,0,2.7,0.1C72.7,43.9,62.3,57.2,62.3,73c0,17.2,13.1,32.7,27.6,47.7c-1.8,1.9-3.7,3.7-5.5,5.6
	C67.7,109.5,50.7,92.1,50.7,73z M84.3,215.2c-18.5,0-33.6-15.1-33.6-33.6c0-19.2,17-36.6,33.6-53.4c1.8,1.9,3.7,3.7,5.5,5.6
	c-14.5,15-27.6,30.5-27.6,47.8c0,15.8,10.5,29.1,24.8,33.5C86.2,215.1,85.2,215.2,84.3,215.2z M97.3,215.2c-0.9,0-1.8,0-2.7-0.1
	c0.9-0.3,1.8-0.6,2.7-1c0.9,0.4,1.8,0.7,2.7,1C99.1,215.1,98.2,215.2,97.3,215.2z M110.2,215.2c-0.9,0-1.8,0-2.7-0.1
	c0.9-0.3,1.8-0.6,2.7-1c0.9,0.4,1.8,0.7,2.7,1C112,215.1,111.1,215.2,110.2,215.2z M123.1,215.2c-0.9,0-1.8,0-2.7-0.1
	c14.3-4.4,24.8-17.7,24.8-33.5c0-17.3-13.1-32.8-27.6-47.8c1.8-1.9,3.7-3.7,5.5-5.6c16.6,16.8,33.6,34.1,33.6,53.4
	C156.7,200.1,141.6,215.2,123.1,215.2z M193.2,140.9l-0.5,0.3l0.2,0.5c1.4,3.4,2.8,8.8,1.5,9.9c-0.8,0.7-3.4,1.2-5.7,1.6
	c-4.1,0.8-8.4,1.5-8.4,4.1c0,2.4,2.9,2.7,5.7,3c2.2,0.2,4.7,0.5,5.5,1.7c1.4,2.1-0.5,13.5-2,20.1l0,0.1c0,0.1-1.2,14.5-10.9,14.5
	c-3.2,0-6-0.6-8.7-1.1c-5.1-1-10-2-15.4,1.6c2.4-4.7,3.7-10,3.7-15.7c0-19.8-17.2-37.4-34-54.3c16.8-17,34-34.5,34-54.2
	c0-15.4-10-28.5-23.9-33.2c22,2.1,31,11.8,38.7,22.6c8.7,12.1,13.8,28.6,13.8,31.6c0,1.4-0.4,2.7-0.8,4.3c-0.5,2-1.1,4.3-1.1,7.2
	c0,2.8,4.2,7.1,9.1,12.2c4.3,4.4,9.2,9.4,9.2,11.9C203.1,134.5,193.3,140.8,193.2,140.9z"/>
</svg>
